<svg width="96" height="96" viewBox="0 0 96 96" fill="none" xmlns="http://www.w3.org/2000/svg">
<path d="M18 37.5L13 24.5L37 16.5L47.5 31L42 51.5L32 53.5V56.5L41.5 57.5L40 81L33.5 83.5L25 78.5L23.5 72.5L32 75.5L31.5 67L24 65L20.5 46.5L29.5 42.5L30.5 34.5L18 37.5Z" fill="#FF99C8"/>
<path d="M53.5 16L44.5 20L51.5 34H44L43.5 61H57V63.5L39.5 64.5V73L57 71V82.5H66V70L83.5 68V62L66 63V61H79V34H73L83.5 13L69.5 15L62.5 34H60.5L53.5 16Z" fill="#42B883"/>
<path d="M51.5 45.5L51 39.5L59.5 42.5V46.5L51.5 45.5Z" fill="#35495E"/>
<path d="M51.5 55V50L59.5 49.5V53.5L51.5 55Z" fill="#35495E"/>
<path d="M64.5 53.5V49.5L72 50V55L64.5 53.5Z" fill="#35495E"/>
<path d="M64.5 46.5V42.5L73 39.5L72.5 45.5L64.5 46.5Z" fill="#35495E"/>
</svg>
